<svg xmlns="http://www.w3.org/2000/svg" viewBox="0 0 64 64" fill="none" role="img" aria-label="Cash on delivery">
  <rect x="4" y="32" width="26" height="20" rx="3" fill="#D4A574" stroke="#9A6B3F" stroke-width="1.2"/>
  <path d="M4 38h26" stroke="#9A6B3F" stroke-width="1"/>
  <path d="M8 36h8M8 40h12" stroke="#B8956A" stroke-width="1.2" stroke-linecap="round"/>
  <rect x="34" y="20" width="24" height="18" rx="2" fill="#4ADE80" stroke="#16A34A" stroke-width="1.2"/>
  <path d="M38 25h16M38 29h10" stroke="#15803D" stroke-width="1.2" stroke-linecap="round"/>
  <ellipse cx="20" cy="46" rx="11" ry="4.5" fill="#FCD9B6"/>
  <path d="M11 46c2.5-7 9-11 17-11" stroke="#E8A87C" stroke-width="2.8" stroke-linecap="round"/>
  <ellipse cx="48" cy="40" rx="10" ry="4" fill="#FCD9B6"/>
  <path d="M39 40c3.5-8 11-12 19-12" stroke="#E8A87C" stroke-width="2.8" stroke-linecap="round"/>
  <rect x="36" y="10" width="20" height="12" rx="2" fill="#86EFAC" stroke="#22C55E" stroke-width="1"/>
  <path d="M40 15h12M40 18h8" stroke="#15803D" stroke-width="1" stroke-linecap="round"/>
  <circle cx="50" cy="16" r="6" fill="#FDE68A" stroke="#F59E0B" stroke-width="1"/>
  <text x="50" y="19.5" text-anchor="middle" fill="#B45309" font-family="Arial,sans-serif" font-size="9" font-weight="700">Tk</text>
</svg>
